<?xml version="1.0" encoding="UTF-8"?>
<svg id="Layer_2" data-name="Layer 2" xmlns="http://www.w3.org/2000/svg" viewBox="0 0 600 142.36">
  <g id="Layer_1-2" data-name="Layer 1">
    <g id="Group_2713" data-name="Group 2713" transform="translate(-2.429 -0.928)">
      <path id="Path_2670" data-name="Path 2670" d="M170.84,65.11l-23.02-5.9c-5.11-1.21-9.85-3.66-13.79-7.13-3.58-3.44-5.48-8.26-5.23-13.22-.2-6.16,2.47-12.06,7.23-15.98,5.59-4.32,12.55-6.48,19.6-6.09,6.61-.26,13.12,1.65,18.55,5.43,5.03,3.91,8.01,9.89,8.08,16.26h18.64c-.32-7.16-2.52-14.12-6.37-20.17-3.79-5.75-9.04-10.37-15.22-13.41C172.22,1.52,164.44-.14,156.59,.05c-8.39-.18-16.72,1.54-24.35,5.04-6.59,3.02-12.19,7.83-16.18,13.88-3.88,6.17-5.87,13.35-5.71,20.64-.12,8.3,2.75,16.36,8.08,22.73,6.81,7.36,15.76,12.39,25.59,14.36l23.02,6.09c5.17,1.17,9.96,3.66,13.89,7.23,3.49,3.46,5.35,8.22,5.13,13.13,.17,6.38-2.82,12.43-7.99,16.17-6.29,4.35-13.85,6.49-21.5,6.09-7.4,.35-14.72-1.65-20.92-5.71-5.17-3.52-8.3-9.35-8.37-15.6h-18.64c.34,7.26,2.72,14.28,6.85,20.26,4.16,5.87,9.85,10.48,16.46,13.34,7.54,3.23,15.68,4.82,23.88,4.66,8.82,.19,17.57-1.49,25.69-4.94,6.89-2.93,12.82-7.75,17.1-13.89,4.11-6.13,6.24-13.37,6.09-20.75,.22-8.64-2.8-17.06-8.46-23.59-6.85-7.15-15.7-12.05-25.39-14.06Z" style="fill: #fff;"/>
      <path id="Path_2671" data-name="Path 2671" d="M468.99,2.54h-59.9V88.41h0v51.65h18.83v-51.65h31.67l22.81,51.65h21.19l-24.28-53c17.59-4.69,29.83-20.63,29.84-38.83v-5.53c0-22.17-17.96-40.15-40.14-40.16,0,0-.02,0-.02,0Zm21.32,44.16c0,13.76-11.15,24.91-24.91,24.92h-37.49V18.7h37.5c13.74,0,24.89,11.14,24.89,24.89v3.12Z" style="fill: #fff;"/>
      <path id="Path_2672" data-name="Path 2672" d="M593.75,71.61h-34.71l17.36-46.47-8.78-25.14h-1.21l-52.54,140.06h19.61l19.27-51.65h47.26l-6.25-16.8Z" style="fill: #fff;"/>
      <path id="Path_2673" data-name="Path 2673" d="M48.18,.28l-6.71,18.58c9.83,1.52,18.82,6.41,25.44,13.83,8.87,10.51,13.57,23.9,13.21,37.65,.34,13.76-4.41,27.17-13.34,37.65-8.61,9.55-20.96,14.86-33.82,14.55-9.31,.17-18.45-2.52-26.18-7.71L0,133.61c10.06,5.66,21.43,8.58,32.97,8.45,39.89,0,66.66-32.11,66.66-71.7,.01-34.38-19.8-63.1-51.45-70.07Z" style="fill: #fff;"/>
      <path id="Path_2674" data-name="Path 2674" d="M210.43,20.21h34.66v119.85h18.65V20.21h34.66V2.51h-87.94l-.02,17.69Z" style="fill: #fff;"/>
      <path id="Path_2675" data-name="Path 2675" d="M307.02,20.21h34.66v119.85h18.65V20.21h34.66V2.51h-87.94l-.02,17.69Z" style="fill: #fff;"/>
    </g>
  </g>
</svg>