<svg width="768" height="801" viewBox="0 0 768 801" fill="none" xmlns="http://www.w3.org/2000/svg">
<path d="M426.816 -430.505L421.438 -431.693L360.227 -262.21L367.664 -260.986C449.444 -248.585 524.307 -207.951 579.277 -146.127C650.319 -66.7563 689.442 45.0155 689.442 168.599C689.442 291.491 649.877 403.151 578.045 483C506.849 562.125 409.627 603.966 296.895 603.966C219.357 605.49 143.228 583.108 78.8455 539.859L72.1566 535.264L10.2356 706.713L14.8044 709.323C100.82 757.878 198.137 782.829 296.896 781.648C374.58 782.725 451.603 767.25 522.845 736.25C594.087 705.25 657.916 659.437 710.09 601.854C811.326 489.323 867.078 335.459 867.078 168.599C867.078 -131.666 690.152 -372.431 426.816 -430.505Z" fill="url(#paint0_linear_385_3262)"/>
<defs>
<linearGradient id="paint0_linear_385_3262" x1="93.5216" y1="-204.447" x2="1095.12" y2="1364.28" gradientUnits="userSpaceOnUse">
<stop stop-color="#FF0061"/>
<stop offset="1" stop-color="#FE953D"/>
</linearGradient>
</defs>
</svg>
