<?xml version="1.0" encoding="UTF-8"?><svg id="Layer_2" xmlns="http://www.w3.org/2000/svg" xmlns:xlink="http://www.w3.org/1999/xlink" viewBox="0 0 733.13 336.6"><defs><style>.cls-1{fill:url(#linear-gradient);}.cls-2{fill:#76777a;}</style><linearGradient id="linear-gradient" x1="92.59" y1="115.97" x2="604.36" y2="233.62" gradientUnits="userSpaceOnUse"><stop offset="0" stop-color="#ff943d"/><stop offset=".5" stop-color="#ff0061"/><stop offset="1" stop-color="#e338f5"/></linearGradient></defs><g id="Layer_1-2"><path class="cls-2" d="M73.92,1.72V14.92h-29.83V98.21h-14.12V14.92H0V1.72H73.92ZM31.02,13.86V97.15h12.01V13.86h29.83V2.77H1.06V13.86H31.02Z"/><path class="cls-2" d="M80.52,1.72h13.99V43.03l45.54,.13V1.72h14.12V98.21h-14.12V55.71h-45.54v42.5h-13.99V1.72Zm12.94,95.44V54.65h47.65v42.51h12.01V2.77h-12.01V44.22l-47.65-.13V2.77h-11.88V97.15h11.88Z"/><path class="cls-2" d="M163.42,1.72h59.27V15.05h-45.28v28.38h40.79v12.54h-40.79v28.91h45.28v13.33h-59.27V1.72Zm58.21,95.44v-11.22h-45.28v-31.02h40.79v-10.43h-40.79V13.99h45.28V2.77h-57.16V97.15h57.16Z"/><path class="cls-2" d="M317.59,0c21.52,0,37.49,12.54,40.66,31.55h-14.26c-3.83-12.14-13.86-18.22-26.67-18.22-19.8,0-32.47,14.78-32.47,37.23s13.33,35.91,31.94,35.91c14.52,0,29.57-8.45,29.57-25.34v-4.09h-31.95v-12.41h45.01v53.73h-11.75l-.79-11.88c-6.07,8.05-17.95,13.33-31.15,13.33-26.53,0-45.01-19.8-45.01-49.5S289.34,0,317.59,0Zm-1.85,98.74c13.6,0,25.61-5.54,31.15-14.12l.92,.26,.92,12.41h9.64V45.67h-42.9v10.3h31.94v5.15c0,17.56-15.84,26.4-30.62,26.4-19.14,0-33-13.6-33-36.96s13.2-38.28,33.53-38.28c12.8,0,23.36,6.07,27.46,18.22h12.14c-3.43-17.82-18.74-29.44-39.34-29.44-27.72,0-45.81,20.46-45.81,49.24s17.95,48.45,43.96,48.45Z"/><path class="cls-2" d="M422,85.54v12.67h-53.07V1.72h14.12V85.54h38.94Zm-1.06,11.62v-10.56h-38.94V2.77h-12.01V97.15h50.95Z"/><path class="cls-2" d="M465.3,99.79c-27.46,0-46.2-20.86-46.2-49.9S437.84,0,465.43,0s46.46,20.99,46.46,49.9-18.88,49.9-46.6,49.9Zm0-1.06c27.19,0,45.54-20.46,45.54-48.84S492.49,1.06,465.43,1.06s-45.28,20.46-45.28,48.84,18.22,48.84,45.15,48.84Zm.13-86.07c19.67,0,32.87,14.92,32.87,37.23s-13.2,37.22-32.87,37.22-32.74-14.92-32.74-37.22,13.07-37.23,32.74-37.23Zm0,73.39c19.14,0,31.81-14.39,31.81-36.17s-12.67-36.17-31.81-36.17-31.68,14.39-31.68,36.17,12.41,36.17,31.68,36.17Z"/><path class="cls-2" d="M587.01,27.85c0,10.56-5.28,18.08-13.86,22.04,9.11,4.09,15.05,11.88,15.05,22.97,0,15.84-12.54,25.34-31.15,25.34h-37.89V1.85h37.09c19.67,0,30.76,10.69,30.76,26Zm-29.96,69.3c18.22,0,30.1-8.98,30.1-24.29,0-11.62-6.6-19.4-16.76-22.97,9.77-3.43,15.58-10.82,15.58-22.04,0-14.78-10.56-24.95-29.7-24.95h-36.04V97.15h36.83Zm-25.34-84.22h24.42c11.75,0,18.35,7.39,18.35,16.5s-6.47,15.97-18.22,15.97h-24.55V12.94Zm0,41.71h25.61c10.43,0,18.22,5.81,18.35,16.1,0,10.03-7.26,16.24-18.35,16.24h-25.61V54.65Zm24.55-10.3c11.22,0,17.16-6.34,17.16-14.92s-6.07-15.44-17.29-15.44h-23.37v30.36h23.5Zm1.06,41.58c10.69,0,17.29-5.68,17.29-15.18-.13-9.77-7.26-15.05-17.29-15.05h-24.55v30.23h24.55Z"/><path class="cls-2" d="M623.57,1.72h15.05l35.38,96.49h-14.79l-8.45-23.76h-39.34l-8.71,23.76h-14.39L623.57,1.72Zm-21.65,95.44l8.71-23.76h40.92l8.45,23.76h12.41L637.82,2.77h-13.46l-34.45,94.38h12.01Zm27.32-74.45c.53-1.72,1.32-4.09,1.45-5.41l1.06-.13c.26,1.45,1.06,3.83,1.72,5.54l14.65,40.79h-34.06l15.18-40.79Zm17.29,39.73l-14.12-39.47c-.4-.92-.79-2.11-1.19-3.3-.26,1.19-.66,2.38-.92,3.3l-14.65,39.47h30.89Z"/><path class="cls-2" d="M733.13,85.54v12.67h-53.07V1.72h14.12V85.54h38.94Zm-1.06,11.62v-10.56h-38.94V2.77h-12.01V97.15h50.95Z"/><path class="cls-2" d="M39.54,216.61h-13.99V120.12H63.17c19.27,0,31.15,12.28,31.15,31.15s-11.88,31.42-31.29,31.42h-23.5v33.93Zm-1.06-1.06v-33.93h24.55c18.88,0,30.23-12.94,30.23-30.36,0-18.35-11.35-30.1-30.1-30.1H26.6v94.38h11.88Zm0-83.69h22.57c12.94,0,19.8,8.18,19.8,19.01,0,11.35-6.86,20.2-20.2,20.2h-22.18v-39.21Zm22.18,38.15c12.8,0,19.14-8.18,19.14-19.14s-6.34-17.95-18.74-17.95h-21.52v37.09h21.12Z"/><path class="cls-2" d="M128.24,197.47l-5.28,14.39c-14.65-8.45-24.68-24.95-24.68-43.83,0-27.46,21.25-49.9,47.39-49.9,3.56,0,7,.4,10.3,1.32l-5.02,14.26c-1.72-.4-3.43-.53-5.28-.53-17.95,0-32.47,15.58-32.47,34.85,0,12.41,5.94,23.23,15.05,29.44Zm-5.81,12.8l4.49-12.41c-8.84-6.34-14.78-17.42-14.78-29.83,0-19.8,15.05-35.91,33.53-35.91,1.58,0,3.04,.13,4.49,.4l4.49-12.28c-3.04-.66-5.94-1.06-8.98-1.06-25.61,0-46.33,21.91-46.33,48.84,0,18.08,9.24,33.79,23.1,42.24Z"/><path class="cls-1" d="M145.66,217.93c-8.18,0-15.97-2.11-22.7-6.07l.79-2.24,3.56-9.64,.53-1.45,.4-1.06c4.88,3.43,10.96,5.54,17.42,5.54,17.82,0,32.34-15.58,32.34-34.98,0-17.29-11.35-31.42-27.06-34.32l.4-1.19,1.72-4.88,2.11-5.94,.79-2.24c21.12,4.88,36.96,24.95,36.96,48.58,0,27.59-21.25,49.9-47.26,49.9Zm112.73-44.22c3.96,4.49,6.07,10.43,5.94,16.5,.13,5.28-1.45,10.43-4.36,14.52-3.04,4.49-7.13,7.79-11.88,9.9-5.68,2.38-11.88,3.56-17.82,3.43-5.68,.13-11.35-.92-16.63-3.17-4.62-2.24-8.58-5.28-11.48-9.37-2.9-4.22-4.88-9.11-4.88-14.26v-1.06h14.65v.92c0,3.96,1.98,7.52,5.28,9.77,3.43,2.38,7.92,3.7,13.6,3.7s10.43-1.45,13.86-3.96c3.3-2.51,5.15-6.07,5.02-10.17,.13-3.04-1.06-5.94-3.17-8.18-2.51-2.11-5.54-3.56-8.98-4.49l-15.58-4.22c-8.05-2.24-14.12-5.54-17.82-9.9-3.83-4.62-5.81-10.3-5.81-16.1,0-5.15,1.32-10.3,4.22-14.52,2.77-4.36,6.6-7.66,11.22-9.77,5.41-2.38,11.22-3.7,17.03-3.56,5.28-.13,10.82,1.06,15.71,3.3,4.36,2.24,8.05,5.41,10.69,9.64,2.77,4.09,4.62,8.98,4.62,14.12v1.06h-14.78v-.92c-.26-4.75-1.98-7.92-5.02-10.3-3.17-2.24-7.26-3.43-11.88-3.43-5.28,0-9.64,1.32-12.54,3.83-3.17,2.51-4.75,6.07-4.62,10.03-.26,3.04,.92,6.07,3.17,8.18,2.51,2.24,5.54,3.7,8.98,4.62l15.44,3.96c7.92,1.98,13.86,5.41,17.82,9.9Zm7.66-52.27h61.38v14.12h-23.36v81.05h-14.65v-81.05h-23.36v-14.12Zm67.59,0h61.51v14.12h-23.5v81.05h-14.65v-81.05h-23.36v-14.12Zm68.91,0h41.45c15.58,0,28.12,12.67,28.12,28.25v3.7c0,12.41-8.05,23.23-19.67,26.93l16.5,36.3h-16.63l-.26-.92-15.18-34.06h-19.54v34.98h-14.78V121.44Zm38.94,46.73c8.84,0,15.84-7,15.84-15.84v-2.11c0-8.71-7-15.84-15.84-15.84h-24.16v33.79h24.16Zm67.06-46.73h3.56l5.81,16.5-.4,.26-11.22,29.96h22.84l4.88,13.46h-32.6l-13.07,34.98h-15.58l35.77-95.18Z"/><path class="cls-2" d="M561.33,216.61h-14.52l-29.57-79.07-5.68-16.1h13.99l35.77,95.18Zm-43.03-79.33l29.3,78.28h12.14l-34.98-93.06h-11.62l5.15,14.78Z"/><path class="cls-2" d="M566.61,120.12h32.08c28.25,0,47.79,19.67,47.79,48.31s-19.27,48.18-47.79,48.18h-32.08V120.12Zm32.08,95.44c27.99,0,46.73-19.01,46.73-47.13s-19.01-47.26-46.73-47.26h-31.02v94.38h31.02Zm-19.14-83.29h18.22c21.12,0,35.11,14.65,35.11,36.17s-13.86,36.17-35.11,36.17h-18.22v-72.34Zm18.22,71.28c20.72,0,34.06-14.12,34.06-35.11s-13.46-35.11-34.06-35.11h-17.16v70.23h17.16Z"/><path class="cls-2" d="M653.2,120.12h59.27v13.33h-45.28v28.38h40.79v12.54h-40.79v28.91h45.28v13.33h-59.27V120.12Zm58.21,95.44v-11.22h-45.28v-31.02h40.79v-10.43h-40.79v-30.49h45.28v-11.22h-57.16v94.38h57.16Z"/><path class="cls-2" d="M64.02,238.52h13.73l48.05,73.13v-73.13h13.99v96.5h-13.73l-48.05-73.39v73.39h-13.99v-96.5Zm12.94,95.44v-74.05l.92-.26,48.71,74.32h12.14v-94.38h-11.88v73.79l-.92,.26-48.71-74.05h-12.14v94.38h11.88Z"/><path class="cls-2" d="M149.42,238.52h59.27v13.33h-45.28v28.38h40.79v12.54h-40.79v28.91h45.28v13.33h-59.27v-96.5Zm58.21,95.44v-11.22h-45.28v-31.02h40.79v-10.43h-40.79v-30.49h45.28v-11.22h-57.16v94.38h57.16Z"/><path class="cls-2" d="M288.42,238.52v13.2h-29.83v83.29h-14.12v-83.29h-29.96v-13.2h73.92Zm-42.9,12.14v83.29h12.01v-83.29h29.83v-11.09h-71.81v11.09h29.96Z"/><path class="cls-2" d="M308.48,238.52l16.9,58.74,.79,3.04c.92,3.3,1.85,7,2.9,11.62,1.19-5.94,2.51-10.3,3.83-14.65l18.22-58.74h14.92l17.82,58.74c1.45,4.49,2.64,8.98,3.96,14.78,1.32-5.81,2.51-10.3,3.83-14.65l17.03-58.87h14.78l-29.04,96.5h-13.2l-22.7-71.55-22.97,71.55h-13.33l-28.78-96.5h15.05Zm14.52,95.44h11.75l23.23-72.47h1.06l22.97,72.47h11.62l28.51-94.38h-12.67l-16.76,58.08c-1.45,5.02-2.9,10.03-4.36,17.16h-1.06c-1.45-7.13-2.9-12.14-4.49-17.29l-17.56-57.95h-13.33l-17.95,57.95c-1.45,5.02-3.04,9.9-4.36,17.29h-1.06c-1.19-5.94-2.24-10.3-3.43-14.26l-.79-3.04-16.63-57.95h-12.94l28.25,94.38Z"/><path class="cls-2" d="M467.68,336.6c-27.46,0-46.2-20.86-46.2-49.9s18.75-49.9,46.33-49.9,46.46,20.99,46.46,49.9-18.88,49.9-46.6,49.9Zm0-1.06c27.19,0,45.54-20.46,45.54-48.84s-18.35-48.84-45.41-48.84-45.28,20.46-45.28,48.84,18.22,48.84,45.15,48.84Zm.13-86.07c19.67,0,32.87,14.92,32.87,37.23s-13.2,37.22-32.87,37.22-32.74-14.92-32.74-37.22,13.07-37.23,32.74-37.23Zm0,73.39c19.14,0,31.81-14.39,31.81-36.17s-12.67-36.17-31.81-36.17-31.68,14.39-31.68,36.17,12.41,36.17,31.68,36.17Z"/><path class="cls-2" d="M523.64,238.52h37.09c21.38,0,33.4,10.96,33.4,29.17,0,13.6-7,23.5-18.22,27.19l18.61,40.13h-15.84l-17.03-37.89h-24.02v37.89h-13.99v-96.5Zm12.94,95.44v-37.88h25.87l17.03,37.88h13.46l-18.61-39.73c11.75-3.3,18.74-12.94,18.74-26.53,0-17.69-11.48-28.12-32.34-28.12h-36.04v94.38h11.88Zm0-83.82h24.16c12.8,0,19.67,7,19.67,17.69s-6.6,17.69-19.54,17.69h-24.29v-35.38Zm24.29,34.32c12.41,0,18.48-6.6,18.48-16.63s-6.34-16.63-18.61-16.63h-23.1v33.26h23.23Z"/><path class="cls-2" d="M660.93,238.52h17.29l-33.26,41.45,32.87,55.05h-16.9l-25.48-43.17-16.63,20.86v22.44h-14.12v-96.63h14.12v52.54l42.11-52.54Zm-43.17,95.57v-21.65l17.95-22.44,25.74,43.96h14.52l-32.34-53.99,32.47-40.39h-14.65l-43.69,54.39v-54.39h-12.01v94.51h12.01Z"/></g></svg>